<svg width="483" height="303" viewBox="0 0 483 303" fill="none" xmlns="http://www.w3.org/2000/svg">
<path d="M118 82L117.864 83.9953L118 82ZM194.168 302.492C194.992 303.228 196.257 303.156 196.992 302.332L208.978 288.902C209.713 288.078 209.641 286.814 208.817 286.078C207.993 285.343 206.729 285.415 205.993 286.239L195.34 298.176L183.402 287.522C182.578 286.787 181.314 286.859 180.578 287.683C179.843 288.507 179.915 289.771 180.739 290.507L194.168 302.492ZM0.405051 3.2067C1.17961 4.23047 2.00316 5.29531 2.87345 6.39647L6.01165 3.91621C5.15796 2.83606 4.35169 1.79351 3.59495 0.793295L0.405051 3.2067ZM8.00307 12.6547C9.66721 14.6179 11.4437 16.6548 13.3235 18.7454L16.298 16.0709C14.444 14.009 12.6931 12.0015 11.0543 10.0682L8.00307 12.6547ZM18.8081 24.6799C20.6175 26.5856 22.5002 28.5189 24.45 30.4663L27.2767 27.6362C25.3525 25.7143 23.4945 23.8064 21.7089 21.9257L18.8081 24.6799ZM30.2479 36.104C32.1772 37.9301 34.1598 39.7574 36.1907 41.5751L38.8583 38.5945C36.8561 36.8025 34.9008 35.0004 32.9974 33.1989L30.2479 36.104ZM42.2924 46.8781C44.3421 48.6065 46.4327 50.3163 48.5597 51.9975L51.0401 48.8595C48.9477 47.2056 46.8899 45.5226 44.8711 43.8202L42.2924 46.8781ZM54.9934 56.9075C57.1681 58.5075 59.3747 60.0703 61.6088 61.5862L63.8546 58.2762C61.6648 56.7904 59.4999 55.2571 57.364 53.6856L54.9934 56.9075ZM68.4132 65.9982C70.7271 67.428 73.0653 68.8001 75.4234 70.1045L77.3595 66.6042C75.061 65.3329 72.7783 63.9934 70.5159 62.5954L68.4132 65.9982ZM82.6436 73.8477C85.1103 75.0395 87.5941 76.1488 90.0901 77.1642L91.5975 73.4591C89.1851 72.4777 86.779 71.4033 84.3838 70.2461L82.6436 73.8477ZM97.7691 79.9694C100.395 80.8168 103.029 81.5499 105.667 82.1553L106.562 78.2566C104.044 77.6788 101.521 76.9772 98.9978 76.1628L97.7691 79.9694ZM113.76 83.5971C115.128 83.7685 116.497 83.9019 117.864 83.9953L118.136 80.0047C116.847 79.9165 115.553 79.7905 114.257 79.6281L113.76 83.5971ZM117.864 83.9953C119.266 84.0912 120.674 84.1645 122.088 84.216L122.234 80.2187C120.861 80.1686 119.495 80.0976 118.136 80.0047L117.864 83.9953ZM130.545 84.2749C133.342 84.2155 136.155 84.0808 138.978 83.8783L138.691 79.8885C135.931 80.0865 133.186 80.2179 130.46 80.2758L130.545 84.2749ZM147.372 83.0865C150.148 82.7644 152.93 82.3844 155.713 81.9532L155.1 78.0004C152.364 78.4243 149.633 78.7973 146.911 79.1131L147.372 83.0865ZM164.002 80.5244C166.749 80.0048 169.494 79.4419 172.231 78.8421L171.375 74.9348C168.672 75.527 165.965 76.0821 163.259 76.594L164.002 80.5244ZM180.406 76.9416C183.126 76.2745 185.835 75.5768 188.529 74.8551L187.494 70.9913C184.825 71.7064 182.143 72.3969 179.453 73.0568L180.406 76.9416ZM196.602 72.6124C199.3 71.8377 201.978 71.0448 204.632 70.2404L203.472 66.4124C200.834 67.2118 198.175 67.9991 195.498 68.7678L196.602 72.6124ZM212.626 67.765C215.31 66.9174 217.965 66.0647 220.584 65.2143L219.349 61.4099C216.738 62.2576 214.094 63.1069 211.421 63.9505L212.626 67.765ZM228.525 62.613C231.211 61.727 233.858 60.8502 236.448 59.9949L235.194 56.1966C232.598 57.054 229.959 57.9281 227.272 58.8142L228.525 62.613ZM244.359 57.399C247.077 56.5156 249.725 55.667 252.296 54.8641L251.104 51.0458C248.513 51.8548 245.85 52.7084 243.122 53.5948L244.359 57.399ZM260.246 52.4671C263.028 51.6642 265.692 50.9401 268.229 50.3112L267.266 46.4288C264.67 47.0724 261.956 47.8105 259.137 48.624L260.246 52.4671ZM276.244 48.583C277.634 48.3378 278.966 48.1377 280.237 47.9859L279.763 44.0141C278.408 44.1758 277.002 44.3875 275.549 44.6437L276.244 48.583ZM280.237 47.9859C281.384 47.849 282.701 47.723 284.179 47.6108L283.876 43.6223C282.354 43.7378 280.978 43.869 279.763 44.0141L280.237 47.9859ZM292.261 47.1954C294.744 47.1163 297.447 47.067 300.341 47.0523L300.321 43.0524C297.394 43.0672 294.656 43.1171 292.134 43.1975L292.261 47.1954ZM308.475 47.0986C311.089 47.1399 313.812 47.2069 316.629 47.3024L316.765 43.3047C313.923 43.2084 311.176 43.1407 308.538 43.0991L308.475 47.0986ZM324.776 47.6473C327.427 47.7814 330.141 47.94 332.908 48.1247L333.175 44.1336C330.386 43.9474 327.651 43.7876 324.979 43.6524L324.776 47.6473ZM341.025 48.7315C343.692 48.9523 346.395 49.1973 349.127 49.4681L349.521 45.4876C346.768 45.2146 344.043 44.9676 341.355 44.7451L341.025 48.7315ZM357.214 50.3376C359.889 50.6479 362.582 50.9834 365.285 51.3453L365.816 47.3807C363.088 47.0155 360.372 46.6772 357.675 46.3642L357.214 50.3376ZM373.337 52.4988C376.012 52.9079 378.69 53.3438 381.364 53.8077L382.047 49.8666C379.346 49.3979 376.642 48.9577 373.941 48.5448L373.337 52.4988ZM389.359 55.2841C392.026 55.8071 394.68 56.3596 397.315 56.9427L398.179 53.0372C395.512 52.4468 392.826 51.8878 390.129 51.3589L389.359 55.2841ZM405.221 58.8017C407.866 59.462 410.483 60.1555 413.063 60.8835L414.149 57.0337C411.528 56.2942 408.872 55.5903 406.19 54.9208L405.221 58.8017ZM420.825 63.2157C423.429 64.0489 425.985 64.9208 428.483 65.8326L429.854 62.0751C427.302 61.1436 424.696 60.2544 422.044 59.4059L420.825 63.2157ZM436.005 68.7769C438.532 69.838 440.982 70.9457 443.346 72.1014L445.103 68.508C442.666 67.3162 440.146 66.1772 437.554 65.0889L436.005 68.7769ZM450.435 75.8702C452.803 77.2416 455.053 78.6707 457.171 80.1592L459.471 76.8864C457.248 75.3248 454.9 73.8333 452.44 72.4088L450.435 75.8702ZM463.402 85.0517C465.439 86.851 467.295 88.7236 468.953 90.6716L471.999 88.0791C470.207 85.9733 468.216 83.9664 466.05 82.0536L463.402 85.0517ZM473.484 97.0256C474.799 99.2802 475.87 101.626 476.681 104.068L480.477 102.808C479.575 100.091 478.387 97.4926 476.94 95.0111L473.484 97.0256ZM478.299 111.596C478.432 112.87 478.5 114.172 478.5 115.5H482.5C482.5 114.035 482.425 112.595 482.277 111.18L478.299 111.596ZM478.5 115.5C478.5 116.88 478.466 118.236 478.4 119.57L482.395 119.769C482.465 118.368 482.5 116.945 482.5 115.5H478.5ZM477.579 127.548C477.146 130.272 476.566 132.889 475.849 135.405L479.696 136.502C480.458 133.829 481.072 131.055 481.529 128.176L477.579 127.548ZM473.174 142.943C472.107 145.429 470.893 147.805 469.543 150.077L472.982 152.12C474.42 149.7 475.713 147.168 476.85 144.521L473.174 142.943ZM465.021 156.685C463.376 158.79 461.601 160.794 459.708 162.701L462.547 165.519C464.546 163.505 466.427 161.382 468.173 159.147L465.021 156.685ZM453.728 168.101C451.659 169.782 449.487 171.375 447.225 172.883L449.443 176.211C451.804 174.638 454.077 172.971 456.25 171.206L453.728 168.101ZM440.292 177.094C437.948 178.392 435.53 179.615 433.05 180.766L434.734 184.394C437.295 183.206 439.797 181.941 442.229 180.594L440.292 177.094ZM425.551 183.959C423.036 184.941 420.473 185.858 417.872 186.714L419.122 190.514C421.788 189.636 424.42 188.695 427.005 187.685L425.551 183.959ZM410.045 189.078C407.424 189.803 404.776 190.473 402.109 191.089L403.01 194.987C405.729 194.358 408.433 193.675 411.112 192.933L410.045 189.078ZM394.091 192.78C391.402 193.294 388.705 193.759 386.01 194.178L386.625 198.131C389.364 197.705 392.106 197.232 394.842 196.709L394.091 192.78ZM377.877 195.309C375.141 195.645 372.416 195.938 369.712 196.19L370.083 200.173C372.824 199.917 375.588 199.621 378.366 199.279L377.877 195.309ZM361.523 196.837C358.746 197.018 356.005 197.159 353.31 197.263L353.465 201.26C356.193 201.154 358.97 201.012 361.783 200.829L361.523 196.837ZM345.096 197.474C343.713 197.491 342.347 197.5 341 197.5V201.5C342.364 201.5 343.747 201.491 345.147 201.473L345.096 197.474ZM341 197.5C339.62 197.5 338.24 197.485 336.859 197.455L336.774 201.455C338.182 201.484 339.591 201.5 341 201.5V197.5ZM328.574 197.12C325.808 196.958 323.046 196.748 320.292 196.5L319.934 200.484C322.725 200.735 325.528 200.948 328.339 201.113L328.574 197.12ZM312.018 195.648C309.247 195.329 306.49 194.98 303.751 194.613L303.219 198.577C305.978 198.948 308.761 199.299 311.56 199.621L312.018 195.648ZM295.495 193.445C292.714 193.035 289.958 192.615 287.232 192.196L286.623 196.149C289.353 196.569 292.118 196.991 294.911 197.403L295.495 193.445ZM278.956 190.921C276.151 190.491 273.383 190.075 270.661 189.684L270.093 193.644C272.797 194.032 275.551 194.446 278.351 194.875L278.956 190.921ZM262.33 188.565C259.473 188.213 256.674 187.906 253.944 187.664L253.59 191.648C256.265 191.886 259.018 192.187 261.841 192.535L262.33 188.565ZM245.483 187.125C242.539 187.024 239.688 187.029 236.947 187.167L237.148 191.162C239.757 191.03 242.492 191.025 245.345 191.123L245.483 187.125ZM228.389 188.13C225.404 188.683 222.582 189.474 219.956 190.555L221.478 194.254C223.808 193.295 226.358 192.574 229.118 192.063L228.389 188.13ZM212.269 195.061C211.111 195.999 210.023 197.033 209.009 198.167L211.991 200.833C212.861 199.859 213.794 198.974 214.787 198.169L212.269 195.061ZM209.009 198.167C208.135 199.145 207.301 200.142 206.507 201.156L209.656 203.622C210.397 202.676 211.175 201.747 211.991 200.833L209.009 198.167ZM202.12 207.585C200.798 209.824 199.631 212.135 198.602 214.517L202.274 216.103C203.239 213.869 204.332 211.707 205.565 209.618L202.12 207.585ZM195.939 221.792C195.197 224.221 194.57 226.713 194.043 229.266L197.961 230.074C198.464 227.632 199.062 225.261 199.765 222.961L195.939 221.792ZM192.786 236.838C192.464 239.321 192.218 241.856 192.035 244.444L196.026 244.726C196.203 242.206 196.442 239.749 196.752 237.352L192.786 236.838ZM191.675 252.057C191.609 254.542 191.589 257.073 191.606 259.649L195.606 259.623C195.589 257.085 195.609 254.598 195.673 252.162L191.675 252.057ZM191.747 267.22C191.821 269.699 191.919 272.217 192.034 274.774L196.03 274.593C195.915 272.053 195.818 269.556 195.745 267.102L191.747 267.22ZM192.414 282.312C192.549 284.786 192.694 287.295 192.844 289.838L196.837 289.604C196.688 287.063 196.543 284.56 196.408 282.094L192.414 282.312ZM193.286 297.356C193.359 298.601 193.432 299.853 193.503 301.113L197.497 300.887C197.425 299.624 197.352 298.369 197.28 297.123L193.286 297.356Z" fill="#93A7C0"/>
</svg>
