<svg width="617" height="338" viewBox="0 0 617 338" fill="none" xmlns="http://www.w3.org/2000/svg">
<path d="M41.2744 155.395C41.5334 152.448 41.8924 147.573 45.1688 145.411C48.4451 143.25 55.3862 142.844 61.3439 143.701C70.125 144.962 76.8814 149.221 80.368 155.688C82.4209 159.499 83.1855 163.813 82.5693 168.16C82.0449 171.885 79.8717 176.954 72.4921 179.969C67.8684 181.856 62.1036 182.492 56.6773 181.713C50.1269 180.772 43.1609 179.649 41.6482 174.36C40.7937 171.377 40.6849 169.414 40.78 164.903C40.8595 161.193 41.0166 158.345 41.2744 155.395ZM36.8823 148.425L35.7654 173.821C35.6715 175.967 34.5013 177.299 31.8283 177.157C23.0547 176.69 13.8713 169.61 16.1149 158.479C18.2396 147.939 28.6941 144.134 33.7838 144.718C36.0925 144.979 36.9861 146.097 36.8823 148.425ZM51.749 222.303C53.3605 218.331 54.1961 216.705 56.0585 214.689C59.3577 211.115 65.8131 214.771 71.8396 218.311C76.8319 221.242 81.5921 225.626 84.8797 230.332C90.1377 237.842 90.1127 243.677 89.165 247.256C88.0625 251.425 85.7806 254.656 82.5694 256.592C77.1163 259.88 69.663 259.078 61.585 254.33C56.1036 251.11 50.2649 246.162 48.2225 242.087C46.18 238.012 47.7192 233.586 48.6052 230.853C49.4911 228.12 50.4245 225.567 51.749 222.303ZM42.1774 233.981L50.7632 211.244C51.489 209.324 50.9765 207.393 48.6081 205.739C40.8339 200.315 30.2176 200.343 27.974 211.473C25.8493 222.013 33.4719 232.257 38.0992 235.134C40.1971 236.44 41.3919 236.065 42.1774 233.981Z" fill="#93A7C0"/>
<path d="M0.5 197C51.6667 199.667 165.7 197.3 212.5 166.5C271 128 277.5 38.9999 346 14.9999C414.5 -9.00012 542 -5.00011 596.5 95.9999C651 197 568 251.5 556 267.5C544 283.5 544 313.5 544 338" stroke="#93A7C0" stroke-width="4" stroke-dasharray="8 8"/>
</svg>
